<svg width="180" height="72" viewBox="0 0 180 72" fill="none" xmlns="http://www.w3.org/2000/svg">
  <rect width="180" height="72" rx="0" fill="#111111"/>
  <path d="M28 47V22h13.5c5.6 0 9 2.9 9 7.2 0 2.7-1.4 4.8-3.8 5.9 3.1 1 4.8 3.1 4.8 6.1 0 4.6-3.7 5.8-9.5 5.8H28Zm6.1-15h6.4c2.4 0 3.8-1.1 3.8-3.1 0-1.9-1.4-3-3.8-3h-6.4V32Zm0 11.1h7.1c2.6 0 4.1-1.1 4.1-3.3 0-2.1-1.5-3.3-4.1-3.3h-7.1v6.6Z" fill="#D8B05F"/>
  <path d="M61 47V22h10.8c7.8 0 13 5.1 13 12.5S79.6 47 71.8 47H61Zm6.3-5.3h4.2c4.1 0 6.8-2.8 6.8-7.2s-2.7-7.2-6.8-7.2h-4.2v14.4Z" fill="#F4E7D1"/>
  <path d="M95.3 47V22h6.3v25h-6.3Zm17.7 0V22h18.6v5.3h-12.3v4.6h10.9v5.1h-10.9v4.7H132V47h-19Z" fill="#F4E7D1"/>
  <text x="28" y="61" fill="#B88945" font-family="Arial, sans-serif" font-size="8" letter-spacing="3">BRIO 778</text>
</svg>
